<svg width="51" height="48" viewBox="0 0 51 48" fill="none" xmlns="http://www.w3.org/2000/svg">
<rect width="51" height="48" rx="8" fill="#027765"/>
<path d="M19 36C19.5523 36 20 35.5523 20 35C20 34.4477 19.5523 34 19 34C18.4477 34 18 34.4477 18 35C18 35.5523 18.4477 36 19 36Z" stroke="white" stroke-width="2" stroke-linecap="round" stroke-linejoin="round"/>
<path d="M30 36C30.5523 36 31 35.5523 31 35C31 34.4477 30.5523 34 30 34C29.4477 34 29 34.4477 29 35C29 35.5523 29.4477 36 30 36Z" stroke="white" stroke-width="2" stroke-linecap="round" stroke-linejoin="round"/>
<path d="M11 15H15L17.68 28.39C17.7714 28.8504 18.0219 29.264 18.3875 29.5583C18.7532 29.8526 19.2107 30.009 19.68 30H29.4C29.8693 30.009 30.3268 29.8526 30.6925 29.5583C31.0581 29.264 31.3086 28.8504 31.4 28.39L33 20H16" stroke="white" stroke-width="2" stroke-linecap="round" stroke-linejoin="round"/>
<circle cx="35" cy="16" r="6" fill="#F44336"/>
<path d="M33.312 17.904C33.4933 17.76 33.576 17.6933 33.56 17.704C34.0827 17.272 34.4933 16.9173 34.792 16.64C35.096 16.3627 35.352 16.072 35.56 15.768C35.768 15.464 35.872 15.168 35.872 14.88C35.872 14.6613 35.8213 14.4907 35.72 14.368C35.6187 14.2453 35.4667 14.184 35.264 14.184C35.0613 14.184 34.9013 14.2613 34.784 14.416C34.672 14.5653 34.616 14.7787 34.616 15.056H33.296C33.3067 14.6027 33.4027 14.224 33.584 13.92C33.7707 13.616 34.0133 13.392 34.312 13.248C34.616 13.104 34.952 13.032 35.32 13.032C35.9547 13.032 36.432 13.1947 36.752 13.52C37.0773 13.8453 37.24 14.2693 37.24 14.792C37.24 15.3627 37.0453 15.8933 36.656 16.384C36.2667 16.8693 35.7707 17.344 35.168 17.808H37.328V18.92H33.312V17.904Z" fill="white"/>
</svg>
