<svg width="48" height="65" viewBox="0 0 48 65" fill="none" xmlns="http://www.w3.org/2000/svg">
<path d="M9.77333 25.0197L0 20.593V57.9264L9.77333 64.8384L48 59.0917V19.505L9.77333 25.0197ZM5.33333 28.8624L8 30.0704V57.0517L5.33333 55.1664V28.8624ZM42.6667 54.5024L13.3333 58.9104V29.8944L42.6667 25.6624V54.5024ZM37.3333 12.281L37.3307 16.945C37.3307 17.601 36.8507 18.1584 36.2027 18.257C35.3947 18.377 34.6667 17.7504 34.6667 16.937V12.281C34.6693 10.4384 34.0507 8.80371 32.9253 7.67838C31.944 6.69171 30.6667 6.17171 29.2347 6.17171C25.1093 6.17171 21.3413 10.3264 21.3333 14.8864V19.369C21.3333 20.0277 20.8507 20.5877 20.2 20.6864C19.3947 20.809 18.6667 20.1824 18.6667 19.369L18.6693 14.881C18.68 8.85171 23.6453 3.50505 29.2347 3.50505C33.8133 3.50505 37.3387 7.20371 37.3333 12.281ZM10.6693 18.1717V12.2117C10.68 6.18505 15.6453 0.838379 21.2347 0.838379C22.5467 0.838379 23.752 1.17171 24.8347 1.72371C23.7067 2.17705 22.6427 2.79038 21.6667 3.54505L21.2347 3.50505C17.1093 3.50505 13.3387 7.65971 13.3333 12.2197V18.1717C13.3333 18.833 12.848 19.393 12.1947 19.489C11.3947 19.609 10.6693 18.9904 10.6693 18.1717Z" fill="#027765"/>
</svg>
