<svg width="242" height="207" viewBox="0 0 242 207" fill="none" xmlns="http://www.w3.org/2000/svg">
<g clip-path="url(#clip0_103_61)">
<path d="M71.1191 204.84C75.004 201.56 77.3637 196.378 76.7448 191.334C76.126 186.29 72.2931 181.652 67.3214 180.581C62.3496 179.51 56.6821 182.475 55.172 187.328C54.3409 177.972 53.3833 168.223 48.405 160.256C43.8973 153.041 36.09 147.879 27.6285 146.955C19.1671 146.031 10.2583 149.52 4.98122 156.193C-0.295862 162.866 -1.58793 172.568 2.108 180.23C4.83066 185.874 9.84677 190.074 15.1024 193.491C32.0852 204.44 52.4539 208.893 72.4608 206.03" fill="#F2F2F2"/>
<path d="M13.3485 149.713C20.3303 155.395 26.7353 161.75 32.4709 168.687C41.4471 179.505 48.7108 191.634 54.0088 204.651C54.3967 205.601 52.8534 206.014 52.4699 205.075C49.1007 196.845 44.9324 188.964 40.0248 181.546C32.3718 169.959 22.9959 159.605 12.22 150.84C11.4233 150.192 12.5584 149.07 13.3485 149.713V149.713Z" fill="white"/>
<path d="M73.8024 204.84C69.9176 201.56 67.5579 196.378 68.1767 191.334C68.7956 186.29 72.6284 181.652 77.6002 180.581C82.572 179.51 88.2395 182.475 89.7496 187.328C90.5807 177.972 91.5383 168.223 96.5166 160.256C101.024 153.041 108.832 147.879 117.293 146.955C125.754 146.031 134.663 149.52 139.94 156.193C145.217 162.866 146.509 172.568 142.814 180.23C140.091 185.874 135.075 190.074 129.819 193.491C112.836 204.44 92.4676 208.893 72.4608 206.03" fill="#F2F2F2"/>
<path d="M131.573 149.713C124.591 155.395 118.186 161.75 112.451 168.687C103.474 179.505 96.2106 191.634 90.9126 204.651C90.5248 205.601 92.068 206.014 92.4515 205.075C101.12 183.919 114.959 165.272 132.701 150.84C133.498 150.192 132.363 149.07 131.573 149.713V149.713Z" fill="white"/>
<path d="M85.3304 93.1184C92.5173 93.1184 98.3434 87.2967 98.3434 80.1153C98.3434 72.934 92.5173 67.1123 85.3304 67.1123C78.1435 67.1123 72.3174 72.934 72.3174 80.1153C72.3174 87.2967 78.1435 93.1184 85.3304 93.1184Z" fill="#F2F2F2"/>
<path d="M45.208 35.292H134.864V40.1934H56.6534C52.0549 40.1934 47.5014 41.0985 43.2529 42.8569C39.0045 44.6153 35.1442 47.1926 31.8926 50.4418C28.6409 53.6909 26.0616 57.5482 24.3018 61.7934C22.5421 66.0386 21.6363 70.5885 21.6363 75.1835V130.869H11.826C11.3923 130.869 10.9765 130.697 10.6698 130.391C10.3632 130.085 10.1909 129.669 10.1909 129.236V70.2821C10.1909 65.6871 11.0967 61.1371 12.8564 56.8919C14.6162 52.6467 17.1955 48.7895 20.4472 45.5403C23.6988 42.2912 27.559 39.7138 31.8075 37.9554C36.056 36.197 40.6095 35.292 45.208 35.292Z" fill="#F2F2F2"/>
<path d="M62.4526 205.113V130.66H84.281V205.113C84.2804 205.613 84.0812 206.093 83.7271 206.447C83.3729 206.8 82.8928 207 82.392 207H64.3416C63.8408 207 63.3607 206.8 63.0065 206.447C62.6524 206.093 62.4532 205.613 62.4526 205.113Z" fill="#3F3D56"/>
<path d="M5.57324 129.191V68.65C5.58413 59.0121 9.42051 49.7722 16.2407 42.9572C23.0609 36.1422 32.3079 32.3088 41.9532 32.2979H134.444V131.289H7.67212C7.11566 131.288 6.58218 131.067 6.1887 130.674C5.79522 130.281 5.57388 129.748 5.57324 129.191ZM133.605 33.1368H41.9532C32.5305 33.1474 23.4969 36.8924 16.8341 43.5501C10.1713 50.2078 6.42344 59.2346 6.41279 68.65V129.191C6.41316 129.525 6.54595 129.845 6.78204 130.081C7.01813 130.317 7.33824 130.449 7.67212 130.45H133.605V33.1368Z" fill="#3F3D56"/>
<path d="M85.3306 86.8267C83.3274 86.8245 81.4068 86.0283 79.9903 84.6129C78.5737 83.1974 77.7769 81.2783 77.7747 79.2766V25.1672C77.7743 24.8335 77.6415 24.5137 77.4054 24.2778C77.1693 24.0419 76.8492 23.9092 76.5154 23.9088H47.1311C46.5746 23.9082 46.0412 23.687 45.6477 23.2938C45.2542 22.9007 45.0329 22.3676 45.0322 21.8116V2.09726C45.0329 1.54123 45.2542 1.00816 45.6477 0.614983C46.0412 0.221809 46.5746 0.000643877 47.1311 0H90.7877C91.3442 0.000636122 91.8776 0.221801 92.2711 0.614977C92.6646 1.00815 92.886 1.54123 92.8866 2.09726V79.2766C92.8843 81.2783 92.0875 83.1974 90.671 84.6129C89.2545 86.0283 87.3339 86.8245 85.3306 86.8267Z" fill="#027765"/>
<path d="M137.802 31.459C144.135 31.4458 150.213 33.9467 154.7 38.4117C159.188 42.8767 161.716 48.94 161.729 55.2678V124.188H208.744C210.633 124.184 212.446 124.93 213.784 126.262C215.122 127.593 215.876 129.402 215.88 131.289H113.875V55.2678C113.888 48.9401 116.417 42.8767 120.904 38.4117C125.391 33.9467 131.47 31.4458 137.802 31.459Z" fill="#3F3D56"/>
<path d="M132.061 70.7061L137.015 91.1569L233.934 67.7131L228.979 47.2622C228.919 47.0121 228.797 46.7813 228.624 46.591C228.451 46.4007 228.233 46.2571 227.989 46.1737C227.81 46.1106 227.62 46.082 227.429 46.0895L171.406 17.1045C171.078 16.937 170.701 16.8922 170.342 16.9783C169.984 17.0644 169.668 17.2757 169.452 17.574L142.452 55.1963L132.273 69.3833C132.255 69.4082 132.242 69.4367 132.235 69.467C132.229 69.4973 132.229 69.5286 132.236 69.5588C132.029 69.9033 131.966 70.3155 132.061 70.7061Z" fill="white"/>
<path d="M132.236 69.5588C132.24 69.5854 132.25 69.6108 132.265 69.6335C132.28 69.6562 132.299 69.6759 132.321 69.6912C132.347 69.7093 132.377 69.7217 132.408 69.7279C132.439 69.734 132.472 69.7338 132.503 69.7271C132.554 69.7136 132.598 69.6829 132.628 69.6402L132.663 69.5918L133.193 68.8512L142.818 55.4437L169.81 17.83C169.964 17.6169 170.189 17.466 170.445 17.4047C170.701 17.3434 170.971 17.3758 171.205 17.4961L226.793 46.2565L227.292 46.5153C227.312 46.5237 227.333 46.531 227.354 46.5369C227.392 46.5301 227.43 46.5264 227.468 46.526C227.52 46.5086 227.564 46.4718 227.59 46.4234C227.603 46.3978 227.612 46.3699 227.614 46.3411C227.617 46.3123 227.614 46.2833 227.605 46.2557C227.597 46.2281 227.583 46.2024 227.565 46.1802C227.546 46.1579 227.523 46.1396 227.498 46.1261L227.429 46.0895L171.406 17.1045C171.078 16.937 170.7 16.8922 170.342 16.9783C169.984 17.0644 169.668 17.2757 169.452 17.574L142.452 55.1963L132.273 69.3833C132.255 69.4082 132.242 69.4367 132.235 69.467C132.229 69.4973 132.229 69.5286 132.236 69.5588Z" fill="#3F3D56"/>
<path d="M161.662 72.8351L163.82 73.0743L179.831 74.8466L190.446 76.0208L191.072 76.0904L204.317 65.7531L204.825 65.3571L207.953 62.9158L219.083 54.2305L219.15 53.6205L223.108 17.9191C223.162 17.4275 223.019 16.9346 222.71 16.5484C222.401 16.1622 221.951 15.9143 221.459 15.859L168.628 10.0111C168.136 9.95737 167.643 10.1007 167.256 10.4096C166.87 10.7185 166.622 11.1678 166.566 11.6592L163.774 36.8421L162.226 50.8039L160.84 63.2946L160.198 69.0953L160.011 70.7755C159.957 71.2673 160.101 71.7602 160.411 72.1463C160.72 72.5323 161.171 72.78 161.662 72.8351Z" fill="#E6E6E6"/>
<path d="M175.862 40.3505L198.746 42.8832L206.862 43.7811C207.22 43.8208 207.583 43.7895 207.929 43.6891C208.275 43.5888 208.599 43.4212 208.88 43.1961C209.161 42.971 209.396 42.6926 209.569 42.377C209.743 42.0614 209.853 41.7147 209.893 41.3567C209.932 40.9986 209.901 40.6363 209.801 40.2903C209.7 39.9444 209.533 39.6216 209.307 39.3404C209.082 39.0591 208.803 38.825 208.488 38.6514C208.172 38.4777 207.825 38.3679 207.466 38.3283L197.372 37.2112L176.468 34.895C175.744 34.8151 175.018 35.0257 174.449 35.4805C173.881 35.9352 173.517 36.5969 173.436 37.3201C173.356 38.0433 173.566 38.7688 174.021 39.3371C174.476 39.9053 175.138 40.2699 175.862 40.3505Z" fill="white"/>
<path d="M174.558 50.4659C174.618 50.4764 174.677 50.487 174.737 50.4928L201.302 53.4335L205.738 53.9255C206.462 54.0055 207.188 53.7949 207.756 53.3399C208.325 52.885 208.689 52.2231 208.769 51.4997C208.849 50.7763 208.638 50.0508 208.183 49.4827C207.728 48.9146 207.065 48.5505 206.342 48.4705L199.928 47.7615L178.885 45.4315L175.343 45.0394C174.635 44.9604 173.924 45.1598 173.36 45.5953C172.796 46.0308 172.424 46.6683 172.322 47.373C172.22 48.0778 172.397 48.7945 172.814 49.3717C173.231 49.9488 173.857 50.3412 174.558 50.4658V50.4659Z" fill="white"/>
<path d="M171.552 59.4356C171.769 59.7967 172.067 60.1029 172.423 60.3302C172.778 60.5576 173.181 60.7 173.6 60.7465L184.489 61.9515L203.881 64.0983L203.885 64.0973L204.505 64.1663L207.634 61.725C207.653 61.5396 207.653 61.3526 207.634 61.1671C207.568 60.5444 207.292 59.9628 206.85 59.5186C206.408 59.0744 205.828 58.7942 205.205 58.7243L202.511 58.4252L191.825 57.2436L184.136 56.3915L174.204 55.2916C173.695 55.2353 173.18 55.3223 172.718 55.543C172.256 55.7636 171.865 56.109 171.589 56.5401C171.313 56.9712 171.164 57.4708 171.157 57.9824C171.15 58.4941 171.287 58.9974 171.552 59.4356L171.552 59.4356Z" fill="white"/>
<path d="M186.846 27.9858L192.54 28.616L195.055 28.895L198.854 29.3152C199.578 29.3952 200.304 29.1846 200.872 28.7296C201.441 28.2747 201.805 27.6127 201.885 26.8894C201.965 26.166 201.754 25.4405 201.299 24.8724C200.844 24.3043 200.181 23.9402 199.457 23.8602L187.452 22.5324C186.728 22.452 186.002 22.6622 185.434 23.1168C184.865 23.5713 184.501 24.2329 184.42 24.956C184.34 25.6792 184.55 26.4047 185.005 26.9729C185.46 27.5411 186.122 27.9054 186.846 27.9858V27.9858Z" fill="white"/>
<path d="M140.286 43.1752L147.228 71.8296L158.814 74.031L169.532 76.0699L181.031 78.2562L184.705 78.9549C184.921 78.9955 185.142 78.9899 185.355 78.9385C185.567 78.887 185.767 78.7909 185.939 78.6564L188.887 76.3559L190.753 74.8996L203.998 64.5623L195.577 29.8007C195.494 29.4549 195.312 29.1404 195.054 28.8951C194.828 28.678 194.551 28.5213 194.249 28.4394C193.946 28.3575 193.628 28.3531 193.323 28.4265L141.661 40.9231C141.18 41.0398 140.765 41.3425 140.507 41.7648C140.249 42.187 140.17 42.6943 140.286 43.1752Z" fill="#027765"/>
<path d="M156.204 65.9708C156.376 66.6776 156.821 67.2874 157.443 67.6663C158.064 68.0452 158.811 68.1622 159.518 67.9917L189.832 60.659C190.539 60.4869 191.149 60.0416 191.529 59.4207C191.908 58.7999 192.025 58.0542 191.855 57.3471C191.847 57.312 191.837 57.2775 191.825 57.2436C191.632 56.5619 191.181 55.9814 190.569 55.624C189.957 55.2666 189.23 55.1598 188.54 55.3261L158.227 62.6589C157.519 62.8306 156.909 63.2758 156.53 63.8968C156.15 64.5177 156.033 65.2636 156.204 65.9708Z" fill="white"/>
<path d="M158.814 74.0307L169.532 76.0696L192.236 70.5778C192.943 70.4066 193.554 69.9615 193.933 69.3404C194.312 68.7193 194.429 67.9731 194.258 67.2659C194.087 66.5588 193.641 65.9485 193.02 65.5695C192.398 65.1905 191.651 65.0738 190.944 65.245L160.63 72.5777C159.996 72.7297 159.438 73.1035 159.057 73.6312C158.965 73.7573 158.884 73.8909 158.814 74.0307Z" fill="white"/>
<path d="M181.031 78.2563L184.706 78.9549C184.921 78.9956 185.142 78.9899 185.355 78.9385C185.567 78.887 185.767 78.7909 185.939 78.6564L188.887 76.356L181.031 78.2563Z" fill="white"/>
<path d="M162.312 50.6055C162.484 51.3123 162.93 51.9221 163.551 52.301C164.173 52.6799 164.919 52.797 165.627 52.6264L177.368 49.7863C178.075 49.6142 178.685 49.1689 179.064 48.548C179.444 47.9272 179.561 47.1815 179.391 46.4744C179.299 46.0944 179.127 45.7387 178.885 45.4315C178.56 45.0163 178.122 44.7033 177.624 44.5299C177.126 44.3564 176.589 44.3299 176.076 44.4534L164.335 47.2936C163.627 47.4649 163.017 47.91 162.637 48.5311C162.258 49.1521 162.141 49.8983 162.312 50.6055V50.6055Z" fill="white"/>
<path d="M169.531 76.0696L181.032 78.2565L184.705 78.9555C184.92 78.9956 185.142 78.9898 185.354 78.9383C185.567 78.8869 185.766 78.7911 185.939 78.6571L188.889 76.3561L187.853 76.6065L185.668 78.3099C185.545 78.4056 185.402 78.474 185.251 78.5108C185.099 78.5475 184.941 78.5517 184.787 78.523L182.067 78.0061L170.566 75.8192L169.531 76.0696ZM203.885 64.0989L203.997 64.561L204.507 64.1647L203.885 64.0989ZM169.531 76.0696L181.032 78.2565L184.705 78.9555C184.92 78.9956 185.142 78.9898 185.354 78.9383C185.567 78.8869 185.766 78.7911 185.939 78.6571L188.889 76.3561L187.853 76.6065L185.668 78.3099C185.545 78.4056 185.402 78.474 185.251 78.5108C185.099 78.5475 184.941 78.5517 184.787 78.523L182.067 78.0061L170.566 75.8192L169.531 76.0696ZM169.531 76.0696L181.032 78.2565L184.705 78.9555C184.92 78.9956 185.142 78.9898 185.354 78.9383C185.567 78.8869 185.766 78.7911 185.939 78.6571L188.889 76.3561L187.853 76.6065L185.668 78.3099C185.545 78.4056 185.402 78.474 185.251 78.5108C185.099 78.5475 184.941 78.5517 184.787 78.523L182.067 78.0061L170.566 75.8192L169.531 76.0696ZM132.061 70.7062L145.039 124.275C145.135 124.67 145.384 125.012 145.732 125.224C146.08 125.436 146.498 125.502 146.895 125.406L240.824 102.686C241.22 102.589 241.562 102.34 241.774 101.992C241.987 101.644 242.052 101.227 241.957 100.831L228.979 47.2623C228.919 47.0122 228.797 46.7813 228.624 46.591C228.451 46.4007 228.233 46.2572 227.989 46.1738C227.81 46.1106 227.62 46.082 227.429 46.0896C227.207 46.096 226.99 46.1531 226.794 46.2566C226.703 46.2996 226.618 46.3527 226.539 46.4148L218.83 52.4296L207.634 61.1683L203.884 64.0957L203.885 64.0988L203.881 64.0996L190.127 74.8284L187.853 76.6065L185.668 78.3099C185.545 78.4055 185.402 78.474 185.251 78.5107C185.099 78.5475 184.941 78.5517 184.787 78.523L182.067 78.0061L170.566 75.8192L159.055 73.6315L133.843 68.8373C133.628 68.7947 133.406 68.7995 133.193 68.8513C132.907 68.9213 132.646 69.0721 132.443 69.2858C132.365 69.3697 132.296 69.4612 132.236 69.5589C132.029 69.9034 131.966 70.3156 132.061 70.7062ZM169.531 76.0696L181.032 78.2565L184.705 78.9555C184.92 78.9956 185.142 78.9898 185.354 78.9383C185.567 78.8869 185.766 78.7911 185.939 78.6571L188.889 76.3561L187.853 76.6065L185.668 78.3099C185.545 78.4056 185.402 78.474 185.251 78.5108C185.099 78.5475 184.941 78.5517 184.787 78.523L182.067 78.0061L170.566 75.8192L169.531 76.0696ZM169.531 76.0696L181.032 78.2565L184.705 78.9555C184.92 78.9956 185.142 78.9898 185.354 78.9383C185.567 78.8869 185.766 78.7911 185.939 78.6571L188.889 76.3561L187.853 76.6065L185.668 78.3099C185.545 78.4056 185.402 78.474 185.251 78.5108C185.099 78.5475 184.941 78.5517 184.787 78.523L182.067 78.0061L170.566 75.8192L169.531 76.0696ZM169.531 76.0696L181.032 78.2565L184.705 78.9555C184.92 78.9956 185.142 78.9898 185.354 78.9383C185.567 78.8869 185.766 78.7911 185.939 78.6571L188.889 76.3561L187.853 76.6065L185.668 78.3099C185.545 78.4056 185.402 78.474 185.251 78.5108C185.099 78.5475 184.941 78.5517 184.787 78.523L182.067 78.0061L170.566 75.8192L169.531 76.0696Z" fill="white"/>
<path d="M169.531 76.0696L181.032 78.2565L184.705 78.9555C184.92 78.9956 185.142 78.9898 185.354 78.9383C185.567 78.8869 185.766 78.7911 185.939 78.6571L188.889 76.3561L187.853 76.6065L185.668 78.3099C185.545 78.4056 185.402 78.474 185.251 78.5107C185.099 78.5475 184.941 78.5517 184.787 78.523L182.067 78.0061L170.566 75.8192L169.531 76.0696ZM203.885 64.0989L203.997 64.561L204.507 64.1647L203.885 64.0989ZM169.531 76.0696L181.032 78.2565L184.705 78.9555C184.92 78.9956 185.142 78.9898 185.354 78.9383C185.567 78.8869 185.766 78.7911 185.939 78.6571L188.889 76.3561L187.853 76.6065L185.668 78.3099C185.545 78.4056 185.402 78.474 185.251 78.5107C185.099 78.5475 184.941 78.5517 184.787 78.523L182.067 78.0061L170.566 75.8192L169.531 76.0696ZM169.531 76.0696L181.032 78.2565L184.705 78.9555C184.92 78.9956 185.142 78.9898 185.354 78.9383C185.567 78.8869 185.766 78.7911 185.939 78.6571L188.889 76.3561L187.853 76.6065L185.668 78.3099C185.545 78.4056 185.402 78.474 185.251 78.5107C185.099 78.5475 184.941 78.5517 184.787 78.523L182.067 78.0061L170.566 75.8192L169.531 76.0696ZM132.664 69.5919L132.721 69.6347C132.73 69.619 132.747 69.605 132.759 69.5887C132.887 69.4564 133.045 69.3577 133.219 69.3015C133.394 69.2453 133.58 69.2333 133.761 69.2666L158.815 74.0291L169.531 76.0696L181.032 78.2565L184.705 78.9555C184.92 78.9956 185.142 78.9897 185.354 78.9383C185.567 78.8869 185.766 78.7911 185.939 78.6571L188.889 76.3561L187.853 76.6065L185.668 78.3099C185.545 78.4055 185.402 78.474 185.251 78.5107C185.099 78.5475 184.941 78.5516 184.787 78.523L182.067 78.0061L170.566 75.8192L159.055 73.6315L133.843 68.8373C133.628 68.7947 133.406 68.7995 133.193 68.8513L132.664 69.5919ZM132.061 70.7062L145.039 124.275C145.135 124.67 145.384 125.012 145.732 125.224C146.08 125.436 146.498 125.502 146.895 125.406L240.824 102.686C241.22 102.589 241.562 102.34 241.774 101.992C241.987 101.644 242.052 101.227 241.957 100.831L228.979 47.2623C228.919 47.0122 228.797 46.7813 228.624 46.591C228.451 46.4007 228.233 46.2572 227.989 46.1738C227.81 46.1106 227.62 46.082 227.429 46.0896C227.207 46.096 226.99 46.1531 226.794 46.2566C226.703 46.2996 226.618 46.3527 226.539 46.4148L218.83 52.4296L207.634 61.1683L203.884 64.0957L203.885 64.0989L203.881 64.0996L190.127 74.8284L187.853 76.6065L185.668 78.3099C185.545 78.4056 185.402 78.474 185.251 78.5107C185.099 78.5475 184.941 78.5517 184.787 78.523L182.067 78.0061L170.566 75.8192L159.055 73.6315L133.843 68.8373C133.628 68.7947 133.406 68.7995 133.193 68.8513C132.907 68.9213 132.646 69.0721 132.443 69.2858C132.365 69.3697 132.296 69.4612 132.236 69.5588C132.029 69.9034 131.966 70.3156 132.061 70.7062ZM132.489 70.6026C132.45 70.4447 132.448 70.2803 132.482 70.1213C132.515 69.9623 132.584 69.8128 132.683 69.6838C132.691 69.6648 132.704 69.6481 132.721 69.6347C132.73 69.619 132.747 69.605 132.759 69.5887C132.887 69.4564 133.045 69.3577 133.219 69.3015C133.394 69.2453 133.58 69.2333 133.761 69.2666L158.815 74.0291L169.531 76.0696L181.032 78.2565L184.705 78.9555C184.92 78.9956 185.142 78.9898 185.354 78.9383C185.567 78.8869 185.766 78.7911 185.939 78.6571L188.889 76.3561L190.754 74.8998L203.997 64.561L204.507 64.1647L207.633 61.7245L218.764 53.0379L226.812 46.7581C226.934 46.6627 227.076 46.5945 227.226 46.558C227.268 46.5477 227.311 46.5407 227.354 46.537C227.392 46.5301 227.43 46.5265 227.468 46.5261C227.597 46.5249 227.725 46.5457 227.846 46.5877C228.02 46.6481 228.175 46.7508 228.299 46.8865C228.423 47.0223 228.51 47.1868 228.554 47.365L241.532 100.933C241.566 101.074 241.572 101.22 241.55 101.362C241.528 101.505 241.477 101.642 241.402 101.765C241.327 101.889 241.228 101.996 241.111 102.081C240.994 102.166 240.862 102.227 240.721 102.261L146.792 124.982C146.509 125.05 146.21 125.003 145.961 124.851C145.713 124.699 145.535 124.454 145.467 124.171L132.489 70.6026ZM169.531 76.0696L181.032 78.2565L184.705 78.9555C184.92 78.9956 185.142 78.9898 185.354 78.9384C185.567 78.8869 185.766 78.7911 185.939 78.6571L188.889 76.3561L187.853 76.6065L185.668 78.3099C185.545 78.4056 185.402 78.474 185.251 78.5108C185.099 78.5475 184.941 78.5517 184.787 78.523L182.067 78.0061L170.566 75.8192L169.531 76.0696ZM169.531 76.0696L181.032 78.2565L184.705 78.9555C184.92 78.9956 185.142 78.9898 185.354 78.9384C185.567 78.8869 185.766 78.7911 185.939 78.6571L188.889 76.3561L187.853 76.6065L185.668 78.3099C185.545 78.4056 185.402 78.474 185.251 78.5108C185.099 78.5475 184.941 78.5517 184.787 78.523L182.067 78.0061L170.566 75.8192L169.531 76.0696ZM169.531 76.0696L181.032 78.2565L184.705 78.9555C184.92 78.9956 185.142 78.9898 185.354 78.9384C185.567 78.8869 185.766 78.7911 185.939 78.6571L188.889 76.3561L187.853 76.6065L185.668 78.3099C185.545 78.4056 185.402 78.474 185.251 78.5108C185.099 78.5475 184.941 78.5517 184.787 78.523L182.067 78.0061L170.566 75.8192L169.531 76.0696Z" fill="#3F3D56"/>
<path d="M216.343 92.161C216.131 91.2832 216.277 90.3574 216.747 89.5867C217.218 88.816 217.976 88.2633 218.854 88.0499L230.709 85.1822C231.586 84.9732 232.51 85.1202 233.279 85.591C234.048 86.0617 234.599 86.8178 234.811 87.6936C235.024 88.5695 234.88 89.4936 234.411 90.2637C233.943 91.0337 233.188 91.5869 232.312 91.802L220.457 94.6697C219.579 94.8811 218.652 94.7357 217.881 94.2654C217.11 93.7951 216.557 93.0383 216.343 92.161Z" fill="#027765"/>
<path d="M85.3305 82.2127C86.9534 82.2127 88.2689 80.8981 88.2689 79.2765C88.2689 77.6549 86.9534 76.3403 85.3305 76.3403C83.7077 76.3403 82.3921 77.6549 82.3921 79.2765C82.3921 80.8981 83.7077 82.2127 85.3305 82.2127Z" fill="white"/>
</g>
<defs>
<clipPath id="clip0_103_61">
<rect width="242" height="207" fill="white"/>
</clipPath>
</defs>
</svg>
