<svg width="32" height="33" viewBox="0 0 32 33" fill="none" xmlns="http://www.w3.org/2000/svg">
<path fill-rule="evenodd" clip-rule="evenodd" d="M23.22 20.118C22.8227 19.9193 20.8747 18.962 20.512 18.8286C20.1493 18.6966 19.8853 18.6313 19.62 19.0286C19.356 19.4233 18.5973 20.3166 18.3667 20.5806C18.1347 20.8459 17.904 20.8779 17.508 20.6806C17.112 20.4806 15.8347 20.0633 14.3213 18.714C13.144 17.6633 12.348 16.366 12.1173 15.9686C11.8867 15.5726 12.092 15.3579 12.2907 15.1606C12.4693 14.9833 12.6867 14.6979 12.8853 14.4673C13.084 14.2353 13.1493 14.07 13.2813 13.8046C13.4147 13.5406 13.348 13.3099 13.248 13.1113C13.1493 12.9126 12.3573 10.9619 12.0267 10.1686C11.7053 9.39662 11.3787 9.50195 11.136 9.48862C10.904 9.47795 10.64 9.47528 10.376 9.47528C10.112 9.47528 9.68267 9.57395 9.32 9.97128C8.956 10.3673 7.93333 11.3259 7.93333 13.2766C7.93333 15.226 9.352 17.1099 9.55067 17.3753C9.74933 17.6393 12.344 21.6419 16.3187 23.3579C17.2653 23.7659 18.0027 24.0099 18.5773 24.1913C19.5267 24.4939 20.3907 24.4513 21.0733 24.3486C21.8333 24.2353 23.4173 23.3899 23.748 22.4646C24.0773 21.5393 24.0773 20.746 23.9787 20.5806C23.88 20.4153 23.616 20.3166 23.2187 20.118H23.22ZM15.9907 29.9886H15.9853C13.6246 29.989 11.3072 29.3544 9.276 28.1513L8.796 27.8659L3.80667 29.1753L5.13867 24.3113L4.82533 23.8126C3.50552 21.7117 2.80706 19.2803 2.81067 16.7993C2.81333 9.53262 8.72533 3.62062 15.996 3.62062C19.516 3.62062 22.8253 4.99395 25.3133 7.48462C26.5405 8.70672 27.5132 10.16 28.175 11.7605C28.8369 13.3609 29.1749 15.0767 29.1693 16.8086C29.1667 24.0753 23.2547 29.9886 15.9907 29.9886ZM27.2067 5.59262C25.7376 4.11385 23.9896 2.94133 22.0641 2.14302C20.1386 1.3447 18.0738 0.93646 15.9893 0.941949C7.25067 0.941949 0.136 8.05528 0.133333 16.7979C0.132 19.5926 0.861333 22.3206 2.24933 24.7246L0 32.9419L8.40533 30.7366C10.7305 32.0034 13.3361 32.6672 15.984 32.6673H15.9907C24.7293 32.6673 31.844 25.5539 31.8467 16.8099C31.8531 14.7263 31.4464 12.6621 30.6499 10.7367C29.8535 8.81124 28.6832 7.06284 27.2067 5.59262Z" fill="#BBE3E0"/>
</svg>
