<svg width="18" height="23" viewBox="0 0 18 23" fill="none" xmlns="http://www.w3.org/2000/svg">
<path d="M9 12.1414C10.6569 12.1414 12 10.7982 12 9.14136C12 7.4845 10.6569 6.14136 9 6.14136C7.34315 6.14136 6 7.4845 6 9.14136C6 10.7982 7.34315 12.1414 9 12.1414Z" stroke="#BBE3E0" stroke-width="2" stroke-linecap="round" stroke-linejoin="round"/>
<path d="M9 1.14136C6.87827 1.14136 4.84344 1.98421 3.34315 3.4845C1.84285 4.98479 1 7.01963 1 9.14136C1 11.0334 1.402 12.2714 2.5 13.6414L9 21.1414L15.5 13.6414C16.598 12.2714 17 11.0334 17 9.14136C17 7.01963 16.1571 4.98479 14.6569 3.4845C13.1566 1.98421 11.1217 1.14136 9 1.14136V1.14136Z" stroke="#BBE3E0" stroke-width="2" stroke-linecap="round" stroke-linejoin="round"/>
</svg>
