<svg width="48" height="65" viewBox="0 0 48 65" fill="none" xmlns="http://www.w3.org/2000/svg">
<path d="M9.77333 24.3227L0 19.896V57.2294L9.77333 64.1414L48 58.3947V18.808L9.77333 24.3227ZM5.33333 28.1654L8 29.3734V56.3547L5.33333 54.4694V28.1654ZM42.6667 53.8054L13.3333 58.2134V29.1974L42.6667 24.9654V53.8054ZM37.3333 11.584L37.3307 16.248C37.3307 16.904 36.8507 17.4614 36.2027 17.56C35.3947 17.68 34.6667 17.0534 34.6667 16.24V11.584C34.6693 9.74136 34.0507 8.10669 32.9253 6.98136C31.944 5.99469 30.6667 5.47469 29.2347 5.47469C25.1093 5.47469 21.3413 9.62936 21.3333 14.1894V18.672C21.3333 19.3307 20.8507 19.8907 20.2 19.9894C19.3947 20.112 18.6667 19.4854 18.6667 18.672L18.6693 14.184C18.68 8.15469 23.6453 2.80802 29.2347 2.80802C33.8133 2.80802 37.3387 6.50669 37.3333 11.584ZM10.6693 17.4747V11.5147C10.68 5.48802 15.6453 0.141357 21.2347 0.141357C22.5467 0.141357 23.752 0.474691 24.8347 1.02669C23.7067 1.48002 22.6427 2.09336 21.6667 2.84802L21.2347 2.80802C17.1093 2.80802 13.3387 6.96269 13.3333 11.5227V17.4747C13.3333 18.136 12.848 18.696 12.1947 18.792C11.3947 18.912 10.6693 18.2934 10.6693 17.4747Z" fill="#BBE3E0"/>
</svg>
