<svg width="22" height="16" viewBox="0 0 22 16" fill="none" xmlns="http://www.w3.org/2000/svg">
<path d="M20 0.641357H2C1.60218 0.641357 1.22064 0.799393 0.93934 1.0807C0.658035 1.362 0.5 1.74353 0.5 2.14136V14.1414C0.5 14.5392 0.658035 14.9207 0.93934 15.202C1.22064 15.4833 1.60218 15.6414 2 15.6414H20C20.3978 15.6414 20.7794 15.4833 21.0607 15.202C21.342 14.9207 21.5 14.5392 21.5 14.1414V2.14136C21.5 1.74353 21.342 1.362 21.0607 1.0807C20.7794 0.799393 20.3978 0.641357 20 0.641357ZM18.35 2.14136L11 7.22636L3.65 2.14136H18.35ZM2 14.1414V2.82386L10.5725 8.75636C10.698 8.84345 10.8472 8.89012 11 8.89012C11.1528 8.89012 11.302 8.84345 11.4275 8.75636L20 2.82386V14.1414H2Z" fill="#BBE3E0"/>
</svg>
