<svg width="33" height="33" viewBox="0 0 33 33" fill="none" xmlns="http://www.w3.org/2000/svg">
<path d="M16.5 3.82589C20.772 3.82589 21.2787 3.84189 22.9667 3.91923C27.3027 4.11656 29.328 6.17389 29.5253 10.4779C29.6027 12.1646 29.6173 12.6712 29.6173 16.9432C29.6173 21.2166 29.6013 21.7219 29.5253 23.4086C29.3267 27.7086 27.3067 29.7699 22.9667 29.9672C21.2787 30.0446 20.7747 30.0606 16.5 30.0606C12.228 30.0606 11.7213 30.0446 10.0347 29.9672C5.688 29.7686 3.67333 27.7019 3.476 23.4072C3.39867 21.7206 3.38267 21.2152 3.38267 16.9419C3.38267 12.6699 3.4 12.1646 3.476 10.4766C3.67467 6.17389 5.69467 4.11523 10.0347 3.91789C11.7227 3.84189 12.228 3.82589 16.5 3.82589ZM16.5 0.941895C12.1547 0.941895 11.6107 0.960561 9.904 1.03789C4.09333 1.30456 0.864 4.52856 0.597333 10.3446C0.518667 12.0526 0.5 12.5966 0.5 16.9419C0.5 21.2872 0.518667 21.8326 0.596 23.5392C0.862667 29.3499 4.08667 32.5792 9.90267 32.8459C11.6107 32.9232 12.1547 32.9419 16.5 32.9419C20.8453 32.9419 21.3907 32.9232 23.0973 32.8459C28.9027 32.5792 32.14 29.3552 32.4027 23.5392C32.4813 21.8326 32.5 21.2872 32.5 16.9419C32.5 12.5966 32.4813 12.0526 32.404 10.3459C32.1427 4.54056 28.9147 1.30589 23.0987 1.03923C21.3907 0.960561 20.8453 0.941895 16.5 0.941895V0.941895ZM16.5 8.72589C11.9627 8.72589 8.284 12.4046 8.284 16.9419C8.284 21.4792 11.9627 25.1592 16.5 25.1592C21.0373 25.1592 24.716 21.4806 24.716 16.9419C24.716 12.4046 21.0373 8.72589 16.5 8.72589ZM16.5 22.2752C13.5547 22.2752 11.1667 19.8886 11.1667 16.9419C11.1667 13.9966 13.5547 11.6086 16.5 11.6086C19.4453 11.6086 21.8333 13.9966 21.8333 16.9419C21.8333 19.8886 19.4453 22.2752 16.5 22.2752ZM25.0413 6.48189C23.98 6.48189 23.12 7.34189 23.12 8.40189C23.12 9.46189 23.98 10.3219 25.0413 10.3219C26.1013 10.3219 26.96 9.46189 26.96 8.40189C26.96 7.34189 26.1013 6.48189 25.0413 6.48189Z" fill="#BBE3E0"/>
</svg>
