<svg width="22" height="23" viewBox="0 0 22 23" fill="none" xmlns="http://www.w3.org/2000/svg">
<path d="M9.55399 5.38139L6.17099 1.47639C5.78099 1.02639 5.06599 1.02839 4.61299 1.48239L1.83099 4.26939C1.00299 5.09839 0.765988 6.32939 1.24499 7.31639C4.10661 13.2414 8.88503 18.0265 14.806 20.8964C15.792 21.3754 17.022 21.1384 17.85 20.3094L20.658 17.4964C21.113 17.0414 21.114 16.3224 20.66 15.9324L16.74 12.5674C16.33 12.2154 15.693 12.2614 15.282 12.6734L13.918 14.0394C13.8482 14.1126 13.7562 14.1608 13.6563 14.1767C13.5564 14.1926 13.4541 14.1753 13.365 14.1274C11.1354 12.8435 9.28598 10.9916 8.00499 8.76039C7.95702 8.67114 7.93964 8.56861 7.95554 8.46854C7.97144 8.36847 8.01972 8.27638 8.09299 8.20639L9.45299 6.84539C9.86499 6.43139 9.90999 5.79139 9.55399 5.38039V5.38139Z" stroke="#BBE3E0" stroke-width="2" stroke-linecap="round" stroke-linejoin="round"/>
</svg>
