<svg width="49" height="49" viewBox="0 0 49 49" fill="none" xmlns="http://www.w3.org/2000/svg">
<path fill-rule="evenodd" clip-rule="evenodd" d="M27.6911 49H4.08333C1.82933 49 0 47.1707 0 44.9167V4.08333C0 1.82933 1.82933 0 4.08333 0H32.6667C34.9207 0 36.75 1.82933 36.75 4.08333V12.25H32.6667V6.125H4.08333V40.8333H26.5417V45.9375C26.5417 47.0073 26.9132 48.3365 27.6911 49ZM45.9375 14.2917C47.628 14.2917 49 15.6637 49 17.3542V45.9375C49 47.6239 47.63 49 45.9375 49H31.6458C29.9533 49 28.5833 47.6219 28.5833 45.9375V17.3542C28.5833 15.6657 29.9574 14.2917 31.6458 14.2917H45.9375ZM18.375 42.875C19.502 42.875 20.4167 43.7897 20.4167 44.9167C20.4167 46.0437 19.502 46.9583 18.375 46.9583C17.248 46.9583 16.3333 46.0437 16.3333 44.9167C16.3333 43.7897 17.248 42.875 18.375 42.875ZM38.7917 46.9583C37.6626 46.9583 36.75 46.0437 36.75 44.9167C36.75 43.7897 37.6626 42.875 38.7917 42.875C39.9187 42.875 40.8313 43.7897 40.8313 44.9167C40.8313 46.0437 39.9187 46.9583 38.7917 46.9583ZM46.9583 40.8333V20.3677H30.625V40.8333H46.9583ZM39.8125 18.375C40.374 18.375 40.8333 17.9177 40.8333 17.3542C40.8333 16.7907 40.374 16.3333 39.8125 16.3333H37.7708C37.2073 16.3333 36.75 16.7907 36.75 17.3542C36.75 17.9177 37.2073 18.375 37.7708 18.375H39.8125Z" fill="#BBE3E0"/>
</svg>
