<svg width="497" height="364" viewBox="0 0 497 364" fill="none" xmlns="http://www.w3.org/2000/svg">
<g clip-path="url(#clip0_246_1564)">
<path d="M277.412 358.237C376.179 358.237 456.246 278.043 456.246 179.118C456.246 80.1941 376.179 0 277.412 0C178.644 0 98.5774 80.1941 98.5774 179.118C98.5774 278.043 178.644 358.237 277.412 358.237Z" fill="#F2F2F2"/>
<path d="M332.069 111.89C357.754 111.89 378.576 91.0349 378.576 65.3093C378.576 39.5836 357.754 18.7289 332.069 18.7289C306.384 18.7289 285.563 39.5836 285.563 65.3093C285.563 91.0349 306.384 111.89 332.069 111.89Z" fill="#FF6584"/>
<path d="M137.105 34.8073L138.376 61.3517C143.646 68.3911 149.33 76.4466 154.941 85.2259L155.742 44.7298L156.184 45.0127C149.694 40.3692 143.097 36.8165 136.663 34.5613L137.105 34.8073Z" fill="#027765"/>
<path d="M137.45 60.1185L136.218 34.4057C128.992 31.9374 121.981 31.1186 115.572 32.2634C115.239 32.3229 114.911 32.3915 114.584 32.461C116.213 34.2108 125.702 44.5446 137.45 60.1185Z" fill="#027765"/>
<path d="M195.795 91.7868L196.222 92.1945C194.47 88.8954 192.614 85.6879 190.652 82.5719L178.702 129.667L178.5 129.489C179.364 131.555 180.186 133.607 180.965 135.645L195.795 91.7868Z" fill="#027765"/>
<path d="M177.59 65.0123L178.03 65.365C171.713 57.8673 164.53 51.1455 156.634 45.34L155.817 86.6077C161.038 94.8603 165.713 102.989 169.84 110.994L177.59 65.0123Z" fill="#027765"/>
<path d="M90.9043 77.8962C91.5757 84.852 92.947 91.722 94.9973 98.4016L166.259 105.764C162.538 98.8924 158.698 92.446 154.97 86.5708L91.0855 78.4574L90.9043 77.8962Z" fill="#027765"/>
<path d="M97.59 106.104L97.3981 105.544L169.521 111.965C168.65 110.258 167.769 108.574 166.878 106.912L95.3537 99.5231L95.1656 98.9622C95.8865 101.317 96.6946 103.697 97.59 106.104Z" fill="#027765"/>
<path d="M189.84 81.59L190.274 81.9729C186.698 76.3401 182.747 70.9555 178.447 65.8556L170.593 112.459C173.315 117.812 175.781 123.09 177.99 128.293L189.84 81.59Z" fill="#027765"/>
<path d="M188.315 159.439C191.181 171.862 192.267 183.608 191.55 194.548C195.584 185.941 210.922 150.284 205.188 117.052L188.315 159.439Z" fill="#027765"/>
<path d="M110.821 131.221C114.637 136.369 118.793 141.256 123.262 145.848L123.088 145.226L187.243 158.445C185.574 151.508 183.491 144.677 181.006 137.99L110.821 131.221Z" fill="#027765"/>
<path d="M136.896 60.5521C124.182 43.7055 114.15 33.0577 114.005 32.9053L114.171 32.5504C104.522 34.7443 97.7102 41.3191 93.962 50.8356L136.896 60.5521Z" fill="#027765"/>
<path d="M181.559 137.225C181.796 137.859 182.037 138.494 182.265 139.125C184.469 145.171 186.342 151.332 187.876 157.582L204.59 115.597L204.998 116.008C203.94 110.165 202.147 104.481 199.662 99.0903C198.676 96.9766 197.644 94.8948 196.566 92.8448L181.559 137.225Z" fill="#027765"/>
<path d="M154.223 85.4002C148.67 76.7244 143.05 68.7657 137.841 61.8092L93.9219 51.8694L93.773 51.3142C91.0313 58.546 90.0288 67.4301 90.8592 77.3529L154.223 85.4002Z" fill="#027765"/>
<path d="M187.503 159.548L123.817 146.425C150.605 173.968 188.082 195.09 190.474 196.426C191.59 184.291 190.325 171.826 187.503 159.548Z" fill="#027765"/>
<path d="M180.554 136.859L180.569 136.817C177.506 128.731 174.012 120.817 170.1 113.107L97.7993 106.67C99.0268 109.926 100.414 113.217 101.961 116.542C104.215 121.28 106.895 125.801 109.968 130.051L180.554 136.859Z" fill="#027765"/>
<path d="M272.524 124.216L256.599 145.472C256.175 154.26 255.424 164.096 254.154 174.442L280.559 143.764L280.719 144.265C278.678 136.542 275.859 129.591 272.34 123.744L272.524 124.216Z" fill="#027765"/>
<path d="M256.671 143.931L272.097 123.341C268.103 116.823 263.225 111.714 257.56 108.501C257.265 108.334 256.969 108.178 256.673 108.022C256.813 110.41 257.541 124.431 256.671 143.931Z" fill="#027765"/>
<path d="M281.442 205.594L281.51 206.181C282.262 202.521 282.875 198.865 283.349 195.212L244.155 223.85L244.112 223.583C243.462 225.726 242.788 227.832 242.091 229.899L281.442 205.594Z" fill="#027765"/>
<path d="M284.471 173.343L284.585 173.896C284.493 164.085 283.242 154.32 280.857 144.804L253.949 176.066C252.715 185.758 251.139 195.004 249.22 203.807L284.471 173.343Z" fill="#027765"/>
<path d="M209.501 127.889C205.589 133.675 202.27 139.842 199.596 146.296L249.793 197.49C251.303 189.821 252.45 182.403 253.32 175.497L209.284 128.436L209.501 127.889Z" fill="#027765"/>
<path d="M196.688 153.885L196.896 153.331L248.356 204.351C248.772 202.479 249.166 200.619 249.538 198.77L199.156 147.388L199.369 146.836C198.424 149.109 197.531 151.459 196.688 153.885Z" fill="#027765"/>
<path d="M283.349 193.937L283.439 194.509C284.272 187.886 284.658 181.215 284.594 174.54L248.867 205.416C247.555 211.278 246.093 216.918 244.481 222.336L283.349 193.937Z" fill="#027765"/>
<path d="M232.6 252.92C226.896 264.32 220.252 274.061 212.734 282.029C221.321 277.976 255.841 260.311 272.587 231.054L232.6 252.92Z" fill="#027765"/>
<path d="M190.883 181.682C190.544 188.085 190.633 194.504 191.151 200.895L191.413 200.305L232.407 251.471C235.539 245.061 238.284 238.47 240.628 231.731L190.883 181.682Z" fill="#027765"/>
<path d="M255.968 143.911C256.904 122.814 255.958 108.204 255.944 107.995L256.297 107.827C247.469 103.353 238.036 104.065 229.089 109L255.968 143.911Z" fill="#027765"/>
<path d="M241.542 231.496C241.32 232.135 241.102 232.778 240.876 233.41C238.723 239.474 236.242 245.416 233.444 251.21L273.052 229.551L273.106 230.128C276.011 224.952 278.25 219.429 279.769 213.689C280.356 211.432 280.886 209.169 281.361 206.901L241.542 231.496Z" fill="#027765"/>
<path d="M253.491 174.118C254.739 163.889 255.478 154.169 255.896 145.483L228.4 109.771L228.638 109.248C221.922 113.066 215.492 119.268 209.813 127.441L253.491 174.118Z" fill="#027765"/>
<path d="M231.905 252.486L191.211 201.695C194.304 240.02 209.717 280.23 210.71 282.787C219.297 274.154 226.259 263.745 231.905 252.486Z" fill="#027765"/>
<path d="M241.001 230.572L241.039 230.549C243.829 222.365 246.178 214.037 248.074 205.6L196.488 154.455C195.361 157.746 194.334 161.167 193.408 164.717C192.126 169.805 191.311 175 190.972 180.237L241.001 230.572Z" fill="#027765"/>
<path d="M113.744 152.595L123.145 177.446C130.329 182.51 138.221 188.411 146.266 195.023L134.531 156.262L135.038 156.394C127.433 153.987 120.063 152.651 113.248 152.498L113.744 152.595Z" fill="#027765"/>
<path d="M121.883 176.56L112.777 152.488C105.143 152.378 98.2224 153.769 92.4808 156.842C92.1821 157.002 91.8915 157.169 91.6019 157.336C93.6906 158.496 105.904 165.386 121.883 176.56Z" fill="#027765"/>
<path d="M187.144 188.615L187.676 188.871C184.992 186.275 182.237 183.799 179.41 181.443L182.579 229.932L182.331 229.825C183.791 231.522 185.205 233.219 186.575 234.916L187.144 188.615Z" fill="#027765"/>
<path d="M161.568 168.787L162.096 168.987C153.773 163.812 144.868 159.643 135.567 156.566L147.525 196.066C155.038 202.298 161.992 208.582 168.388 214.916L161.568 168.787Z" fill="#027765"/>
<path d="M83.1033 207.877C85.8884 214.285 89.3126 220.394 93.3239 226.111L163.367 211.051C157.709 205.668 152.067 200.726 146.709 196.293L83.4488 208.355L83.1033 207.877Z" fill="#027765"/>
<path d="M98.1667 232.634L97.8114 232.161L168.384 215.939C167.029 214.586 165.671 213.256 164.311 211.952L94.0089 227.068L93.657 226.592C95.0691 228.608 96.5724 230.622 98.1667 232.634Z" fill="#027765"/>
<path d="M178.334 180.761L178.865 180.991C173.726 176.741 168.306 172.843 162.643 169.324L169.555 216.077C173.796 220.325 177.77 224.582 181.477 228.846L178.334 180.761Z" fill="#027765"/>
<path d="M200.908 255.27C207.468 266.197 212.126 277.032 214.821 287.658C216 278.224 219.583 239.564 203.875 209.735L200.908 255.27Z" fill="#027765"/>
<path d="M118.5 252.425C123.719 256.14 129.18 259.501 134.847 262.484L134.489 261.946L199.582 254.657C195.854 248.576 191.765 242.725 187.338 237.134L118.5 252.425Z" fill="#027765"/>
<path d="M121.49 177.144C104.199 165.059 91.3728 158.038 91.1885 157.938L91.2362 157.549C82.7375 162.623 78.2879 170.984 77.6602 181.195L121.49 177.144Z" fill="#027765"/>
<path d="M187.628 236.236C188.049 236.765 188.474 237.295 188.886 237.824C192.847 242.891 196.53 248.171 199.918 253.64L202.856 208.537L203.371 208.8C200.562 203.572 197.102 198.721 193.076 194.363C191.486 192.659 189.862 190.998 188.204 189.382L187.628 236.236Z" fill="#027765"/>
<path d="M145.637 195.411C137.679 188.879 129.877 183.05 122.776 178.047L77.9409 182.191L77.628 181.709C77.2523 189.435 79.0406 198.195 82.8925 207.375L145.637 195.411Z" fill="#027765"/>
<path d="M200.17 255.625L135.553 262.861C169.528 280.762 211.689 289.247 214.376 289.777C211.693 277.891 206.642 266.428 200.17 255.625Z" fill="#027765"/>
<path d="M186.559 236.199L186.56 236.154C181.153 229.412 175.386 222.967 169.287 216.846L98.5404 233.108C100.713 235.824 103.047 238.524 105.545 241.208C109.15 245.016 113.094 248.486 117.329 251.577L186.559 236.199Z" fill="#027765"/>
<path d="M497 304.454C497 325.936 386.667 364 250.564 364C114.461 364 4.1272 325.936 4.1272 304.454C4.1272 282.972 114.461 286.206 250.564 286.206C386.667 286.206 497 282.972 497 304.454Z" fill="#3F3D56"/>
<path opacity="0.1" d="M497 304.454C497 325.936 386.667 364 250.564 364C114.461 364 4.1272 325.936 4.1272 304.454C4.1272 282.972 114.461 286.206 250.564 286.206C386.667 286.206 497 282.972 497 304.454Z" fill="black"/>
<path d="M250.564 343.351C386.667 343.351 497 325.936 497 304.454C497 282.972 386.667 265.557 250.564 265.557C114.461 265.557 4.1272 282.972 4.1272 304.454C4.1272 325.936 114.461 343.351 250.564 343.351Z" fill="#3F3D56"/>
<path opacity="0.1" d="M293.289 263.798C293.289 287.202 260.718 279.963 220.838 279.963C180.958 279.963 148.871 287.202 148.871 263.798C148.871 240.394 181.437 235.304 221.317 235.304C261.197 235.304 293.289 240.394 293.289 263.798Z" fill="black"/>
<path d="M293.289 258.036C293.289 281.44 260.718 274.201 220.838 274.201C180.958 274.201 148.871 281.44 148.871 258.036C148.871 234.631 181.437 229.541 221.317 229.541C261.197 229.541 293.289 234.631 293.289 258.036Z" fill="#3F3D56"/>
<path d="M164.997 193.637C165.874 193.011 166.842 192.525 167.867 192.195C174.366 189.773 181.175 188.288 188.091 187.786C194.104 187.358 200.622 187.866 205.319 191.651C206.05 192.188 206.647 192.886 207.067 193.69C207.657 194.967 207.478 196.452 207.287 197.847C207.244 198.387 207.108 198.917 206.885 199.411C206.253 200.617 204.697 201.039 203.345 200.894C201.993 200.75 200.725 200.177 199.392 199.911C198.567 199.767 197.732 199.682 196.895 199.657L188.534 199.203C183.334 198.921 178.066 198.644 172.966 199.695C171.396 199.978 169.879 200.501 168.468 201.248C167.303 201.903 166.519 202.843 165.438 201.633C163.539 199.507 162.488 195.6 164.997 193.637Z" fill="#2F2E41"/>
<path d="M177.953 197.34C177.953 197.34 189.2 192.29 193.466 198.117C197.732 203.943 191.139 201.613 191.139 201.613L183.77 203.943L175.626 202.39L177.953 197.34Z" fill="#F2F2F2"/>
<path d="M178.535 193.65C178.535 193.65 180.086 201.03 178.923 202.972C177.759 204.914 185.515 207.633 185.515 207.633L192.884 204.526C192.884 204.526 190.945 192.485 192.884 190.154L178.535 193.65Z" fill="#FFB9B9"/>
<path opacity="0.1" d="M178.535 193.65C178.535 193.65 180.086 201.03 178.923 202.972C177.759 204.914 185.515 207.633 185.515 207.633L192.884 204.526C192.884 204.526 190.945 192.485 192.884 190.154L178.535 193.65Z" fill="black"/>
<path d="M171.268 282.39C172.311 284.556 173.168 286.806 173.831 289.117C173.842 289.193 173.869 289.266 173.91 289.332C173.951 289.397 174.005 289.453 174.069 289.495C174.133 289.538 174.206 289.567 174.281 289.579C174.357 289.592 174.435 289.589 174.51 289.569L181.408 289.562C182.259 289.561 183.401 289.287 183.392 288.434C183.386 287.835 182.775 287.462 182.32 287.073C181.057 285.994 180.728 284.214 180.205 282.636C179.189 279.596 177.23 276.961 174.614 275.114C174.26 274.837 173.853 274.636 173.418 274.523C172.981 274.459 172.536 274.483 172.108 274.594C170.897 274.838 166.375 275.676 167.229 277.44C167.597 278.199 168.96 278.99 169.532 279.7C170.198 280.537 170.779 281.438 171.268 282.39Z" fill="#575A89"/>
<path d="M195.255 274.377C195.012 274.889 194.741 275.388 194.444 275.87C193.445 277.521 192.266 279.061 191.335 280.752C190.708 281.785 190.32 282.946 190.202 284.149C190.149 284.75 190.241 285.356 190.47 285.914C190.699 286.473 191.058 286.968 191.518 287.359C192.52 288.12 193.893 288.155 195.137 287.978C196.382 287.801 197.619 287.443 198.872 287.537C198.45 285.142 200.467 283.034 200.971 280.654C201.113 279.986 201.134 279.293 201.324 278.637C201.528 278.037 201.79 277.458 202.105 276.908C203.109 274.949 203.819 272.852 204.211 270.685C204.259 270.422 198.079 270.379 197.5 270.505C195.691 270.896 195.955 272.875 195.255 274.377Z" fill="#575A89"/>
<path d="M147.628 236.745C145.864 239.51 146.271 243.174 147.51 246.212C148.749 249.249 150.721 251.935 152.07 254.924C152.931 256.83 153.534 258.852 154.503 260.705C155.703 262.999 157.454 265.022 158.26 267.484C158.773 269.053 158.89 270.773 159.722 272.199C160.224 272.961 160.798 273.673 161.435 274.327C163.225 276.382 164.57 278.787 165.382 281.39C166.142 279.123 168.417 277.636 170.754 277.146C173.091 276.656 175.512 276.989 177.876 277.323C176.558 275.277 175.226 273.205 174.44 270.9C173.68 268.671 173.455 266.3 172.943 264.001C171.893 259.286 169.65 254.938 167.429 250.65L178.844 249.743C180.708 249.556 182.581 249.486 184.453 249.535C187.4 249.674 190.286 250.398 193.217 250.732C196.148 251.066 199.249 250.979 201.861 249.606C196.866 256.783 194.265 265.359 194.429 274.106C195.545 273.24 196.841 272.634 198.221 272.334C199.601 272.034 201.031 272.047 202.405 272.372C203.779 272.697 205.064 273.326 206.164 274.212C207.265 275.098 208.154 276.22 208.765 277.495C213.239 271.371 212.707 262.847 216.252 256.141C216.981 254.762 217.875 253.478 218.661 252.131C220.148 249.427 221.421 246.61 222.468 243.706C223.459 241.166 224.458 238.339 223.507 235.783C223.112 234.814 222.537 233.928 221.812 233.173C219.767 230.915 216.92 229.244 213.876 229.174C209.204 229.067 205.344 232.536 201.246 234.786C196.353 237.39 190.819 238.54 185.295 238.099C179.665 237.7 174.288 235.854 168.924 234.228C166.241 233.377 163.514 232.673 160.755 232.117C158.454 231.685 156.264 232.164 153.997 232.753C151.529 233.394 149.049 234.519 147.628 236.745Z" fill="#2F2E41"/>
<path d="M196.374 186.27C196.372 189.36 195.145 192.322 192.964 194.507C190.783 196.692 187.825 197.92 184.74 197.923C184.047 197.924 183.355 197.861 182.673 197.736C180.496 197.342 178.476 196.335 176.85 194.832C175.224 193.329 174.06 191.393 173.494 189.25C172.928 187.108 172.983 184.848 173.654 182.737C174.325 180.625 175.583 178.749 177.281 177.328C178.979 175.907 181.046 175 183.24 174.714C185.434 174.429 187.664 174.775 189.668 175.714C191.673 176.653 193.368 178.144 194.556 180.014C195.744 181.884 196.374 184.054 196.374 186.27Z" fill="#FFB9B9"/>
<path d="M177.953 197.34C177.953 197.34 180.086 198.311 180.862 199.088C181.638 199.865 183.964 204.138 187.842 201.419C191.721 198.7 192.108 197.146 193.272 197.146C194.435 197.146 195.986 199.476 195.986 199.476L206.651 231.521C203.777 234.771 200.446 237.584 196.762 239.873C190.557 243.757 183.189 245.699 179.699 244.145C176.208 242.592 169.616 241.426 168.452 238.319C167.289 235.211 165.35 225.889 165.35 225.889L170.779 202.195L177.953 197.34Z" fill="#F2F2F2"/>
<path d="M176.456 229.749C177.301 227.92 177.424 225.85 177.496 223.835C177.61 221.84 177.557 219.839 177.338 217.853C176.994 215.255 176.149 212.751 175.616 210.186C175.148 207.935 174.921 205.641 174.938 203.343C174.946 202.294 175.021 201.19 175.592 200.31C175.99 199.696 176.613 199.221 176.862 198.533C177.349 197.184 176.144 195.772 174.823 195.216C173.215 194.612 171.455 194.541 169.803 195.014C168.165 195.489 166.582 196.137 165.081 196.949C163.946 197.434 162.903 198.11 161.996 198.947C160.792 200.195 160.263 201.932 159.835 203.614C159.493 204.959 159.189 206.363 159.449 207.727C159.872 209.942 161.675 211.608 162.636 213.647C163.752 216.015 163.677 218.775 163.233 221.356C162.789 223.936 162.001 226.459 161.758 229.067C161.515 231.674 161.888 234.477 163.519 236.524C164.183 237.358 165.986 239.334 167.203 239.111C168.159 238.935 169.545 236.827 170.315 236.159C172.539 234.229 175.178 232.513 176.456 229.749Z" fill="#2F2E41"/>
<path d="M196.774 196.073C196.808 198.24 195.855 200.299 194.734 202.152C193.612 204.005 192.295 205.757 191.469 207.759C190.442 210.266 190.233 213.033 190.87 215.666C191.107 216.563 191.393 217.446 191.726 218.312L193.851 224.15C194.136 225.067 194.551 225.94 195.083 226.741C195.563 227.354 196.127 227.897 196.757 228.354C198.371 229.659 200.228 230.63 202.221 231.209C204.227 231.784 206.368 231.661 208.296 230.862C208.501 222.948 209.77 215.098 212.07 207.525C212.495 206.126 212.959 204.654 212.631 203.23C212.264 201.635 210.985 200.438 209.769 199.344C206.05 195.999 201.96 192.485 196.982 192.034C194.101 191.773 196.75 194.507 196.774 196.073Z" fill="#2F2E41"/>
<path d="M171.325 241.233C171.619 241.812 171.803 242.441 172.095 243.021C172.525 243.799 173.057 244.516 173.677 245.153C176.27 248.032 179.44 250.901 183.308 251.075C183.692 251.111 184.079 251.062 184.443 250.932C184.77 250.764 185.051 250.519 185.261 250.217C185.472 249.916 185.606 249.567 185.651 249.202C185.925 247.698 185.262 246.197 184.598 244.82C183.16 241.835 181.541 238.775 178.847 236.85C177.502 235.927 175.966 235.321 174.353 235.078C172.741 234.835 171.094 234.961 169.538 235.447C168.135 235.88 165.808 236.636 167.666 237.918C169.075 238.891 170.507 239.631 171.325 241.233Z" fill="#FFB9B9"/>
<path d="M188.044 203.237C187.641 202.145 187.022 201.145 186.224 200.298C185.42 199.617 184.468 199.134 183.444 198.887C182.118 198.508 180.746 198.311 179.366 198.302C177.724 198.292 175.819 198.733 175.122 200.222C174.568 201.405 174.997 202.805 175.555 203.986C175.793 204.598 176.19 205.135 176.705 205.542C177.413 206.021 178.329 206.006 179.169 206.166C180.47 206.497 181.703 207.057 182.81 207.819L185.687 209.561L190.628 212.552C190.498 212.473 190.544 209.08 190.392 208.523C189.903 206.732 188.803 204.934 188.044 203.237Z" fill="#FFB9B9"/>
<path d="M173.651 288.238C172.495 289.811 172.727 292.061 171.703 293.723C170.815 295.165 169.142 295.921 168.031 297.198C167.677 297.622 167.361 298.077 167.088 298.558C166.058 300.286 165.22 302.501 166.235 304.238C167.051 305.636 168.766 306.182 170.339 306.554C172.328 307.025 174.394 307.401 176.405 307.042C178.416 306.682 180.382 305.449 181.099 303.532C181.24 303.051 181.408 302.577 181.601 302.114C182.691 299.964 186.111 299.941 187.227 297.804C188.007 296.309 187.29 294.502 186.572 292.975L184.381 288.313C183.654 286.766 180.706 287.655 179.169 287.285C177.165 286.801 175.093 286.268 173.651 288.238Z" fill="#2F2E41"/>
<path d="M190.6 284.232C189.702 284.94 189.017 285.881 188.617 286.952C187.533 289.458 187.16 292.205 186.799 294.912C186.593 295.989 186.571 297.093 186.736 298.177C187.203 300.388 189.203 302.016 191.356 302.692C193.509 303.368 195.818 303.264 198.072 303.153C198.799 303.172 199.521 303.025 200.183 302.724C201.315 302.098 201.758 300.628 201.564 299.347C201.369 298.067 200.671 296.927 199.987 295.828C199.303 294.728 198.604 293.59 198.408 292.309C198.079 290.155 199.008 286.994 197.687 285.045C196.363 283.092 192.367 282.992 190.6 284.232Z" fill="#2F2E41"/>
<path d="M196.082 180.197C195.875 179.5 195.419 178.904 194.801 178.523C194.833 177.776 194.741 177.03 194.53 176.313C193.826 174.227 192.157 174.346 190.582 173.424C189.899 173.024 189.941 172.67 189.585 172.013C189.119 171.151 188.421 170.438 187.57 169.954C186.56 169.309 185.493 168.645 184.298 168.563C181.786 168.392 179.86 170.758 177.46 171.517C176.402 171.852 175.264 171.866 174.201 172.182C173.137 172.499 172.076 173.255 171.917 174.355C171.844 174.862 171.973 175.383 171.899 175.891C171.751 176.9 170.867 177.607 170.276 178.437C168.967 180.272 169.117 182.865 170.163 184.862C170.384 185.276 170.636 185.671 170.918 186.045C171.005 186.989 171.276 187.907 171.714 188.747C172.761 190.744 174.561 192.236 176.442 193.476C176.288 192.814 176.195 192.139 176.163 191.459C176.137 191.233 176.166 191.003 176.249 190.791C176.459 190.352 177.012 190.236 177.434 189.996C178.308 189.498 178.651 188.397 178.676 187.39C178.702 186.384 178.489 185.375 178.594 184.374C178.598 184.144 178.65 183.917 178.747 183.708C178.844 183.499 178.984 183.313 179.157 183.161C179.48 182.977 179.848 182.889 180.219 182.908C182.01 182.835 183.882 182.802 185.461 181.953C185.971 181.614 186.519 181.337 187.093 181.127C188.436 180.776 189.808 181.718 190.582 182.872C191.355 184.025 191.741 185.398 192.455 186.59C193.169 187.781 194.402 188.844 195.782 188.703C195.86 188.703 195.937 188.687 196.008 188.655C196.079 188.624 196.143 188.577 196.195 188.519C196.254 188.412 196.281 188.29 196.271 188.168L196.348 182.883C196.412 181.979 196.322 181.071 196.082 180.197Z" fill="#2F2E41"/>
<path d="M159.263 207.84C158.153 209.48 156.873 211.057 156.263 212.942C155.904 214.05 155.793 215.221 155.533 216.356C154.668 220.137 152.17 223.496 151.919 227.367C151.831 228.227 151.957 229.096 152.286 229.895C153.002 231.457 154.718 232.28 156.354 232.797C157.99 233.315 159.747 233.688 161.053 234.803C161.71 235.434 162.307 236.126 162.834 236.87C164.964 239.525 167.831 241.489 171.073 242.516C170.816 240.749 170.696 238.619 172.107 237.526C172.87 236.935 173.891 236.829 174.852 236.746L179.396 236.353C176.366 233.409 173.026 230.803 169.436 228.581C168.179 227.804 166.812 226.984 166.238 225.621C165.941 224.742 165.818 223.815 165.876 222.889C165.844 219.505 165.558 216.127 165.02 212.785C164.646 210.465 164.15 208.166 163.584 205.885C163.425 205.244 162.485 202.372 161.328 203.044C161.055 203.203 160.8 205.025 160.641 205.403C160.262 206.258 159.801 207.074 159.263 207.84Z" fill="#2F2E41"/>
<path d="M211.598 201.641L213.453 205.506C214.347 207.096 214.754 208.914 214.623 210.733L214.733 222.328C214.819 223.877 214.691 225.43 214.353 226.945C214.237 227.444 214.019 227.913 213.713 228.323C213.398 228.677 213.027 228.976 212.615 229.209C209.103 231.406 204.549 232.656 200.839 230.814C199.989 230.36 199.181 229.832 198.425 229.235C196.946 228.139 195.445 227.02 194.339 225.547C193.181 224.006 192.518 222.161 191.739 220.397C190.341 217.232 188.535 214.265 186.366 211.571C186.007 211.215 185.773 210.751 185.701 210.25C185.678 209.233 186.882 208.733 187.821 208.347C189.424 207.686 190.936 206.411 191.205 204.695C194.615 209.174 198.378 213.907 203.759 215.544C203.843 215.598 203.941 215.628 204.041 215.631C204.141 215.634 204.24 215.61 204.328 215.561C204.415 215.512 204.488 215.441 204.538 215.354C204.588 215.267 204.614 215.169 204.613 215.068C204.919 213.788 205.027 212.47 205.25 211.173C205.66 208.811 206.449 206.532 207.587 204.423C208.224 203.241 210.288 198.913 211.598 201.641Z" fill="#2F2E41"/>
<path opacity="0.1" d="M165.551 212.819C165.602 215.563 165.02 218.281 163.85 220.763C163.546 221.311 163.322 221.901 163.184 222.513C162.981 223.819 163.723 225.083 164.571 226.096C166.244 228.087 168.414 229.599 170.86 230.478" fill="black"/>
<path opacity="0.1" d="M205.845 210.506C205.571 211.243 205.82 212.057 206.03 212.814C206.641 215.009 206.926 217.282 206.876 219.56C206.885 219.6 206.884 219.642 206.873 219.681C206.862 219.72 206.841 219.756 206.813 219.785C206.784 219.814 206.749 219.836 206.71 219.848C206.671 219.86 206.63 219.863 206.59 219.855C205.695 219.91 204.67 219.915 204.062 219.254" fill="black"/>
<path opacity="0.1" d="M357.96 320.301C391.324 320.301 418.371 314.496 418.371 307.335C418.371 300.174 391.324 294.37 357.96 294.37C324.596 294.37 297.55 300.174 297.55 307.335C297.55 314.496 324.596 320.301 357.96 320.301Z" fill="black"/>
<path d="M388.165 191.604L383.85 195.926L388.165 200.248L392.48 191.604H388.165Z" fill="#A0616A"/>
<path d="M389.137 154.129C390.348 154.625 390.924 155.982 391.38 157.21L396.978 172.275L398.067 175.207C398.601 176.645 399.136 178.084 399.588 179.55C399.874 180.478 400.126 181.415 400.345 182.361C400.572 183.171 400.659 184.014 400.603 184.853C400.452 185.776 400.115 186.659 399.614 187.449C397.666 190.846 394.893 193.695 391.551 195.731C391.359 194.485 390.857 193.308 390.093 192.307C389.328 191.305 388.325 190.512 387.176 189.999L390.07 188.405C390.683 188.117 391.233 187.713 391.692 187.215C391.972 186.827 392.172 186.386 392.278 185.918C392.385 185.451 392.396 184.967 392.312 184.495C392.138 183.554 391.849 182.638 391.452 181.767C390.481 179.34 389.639 176.862 388.928 174.346C388.507 172.857 388.121 171.328 387.288 170.025C386.532 168.844 385.438 167.899 384.751 166.675C383.704 164.811 383.731 162.516 384.193 160.428C384.584 158.665 385.238 156.969 385.788 155.252C386.221 153.904 387.84 153.597 389.137 154.129Z" fill="#D0CDE1"/>
<path d="M362.449 113.879C360.224 114.632 358.207 116.393 357.752 118.701C357.54 119.771 357.67 120.883 357.492 121.959C357.08 124.455 355.124 126.361 353.32 128.131C351.516 129.902 349.653 131.959 349.521 134.485C349.377 137.251 351.38 139.843 351.033 142.591C350.631 145.783 347.264 147.852 346.432 150.96C345.876 153.036 346.557 155.272 347.677 157.104C349.812 160.596 353.462 162.967 357.349 164.238C361.235 165.509 365.374 165.776 369.462 165.819C374.44 165.872 379.845 165.444 383.585 162.153C385.721 160.257 387.063 157.621 387.341 154.776C387.696 150.964 386.108 147.026 387.203 143.358C387.893 141.05 389.622 138.942 389.364 136.547C389.112 134.205 387.069 132.545 385.668 130.653C384.36 128.886 383.567 126.8 382.789 124.743L380.127 117.706C379.603 116.323 379.029 114.868 377.863 113.96C375.68 112.26 372.169 112.594 369.617 112.944C367.248 113.27 364.727 113.109 362.449 113.879Z" fill="#2F2E41"/>
<path d="M364.508 137.071C364.508 137.071 364.769 144.9 363.987 145.683C363.206 146.465 367.114 151.684 367.114 151.684L374.148 151.424L377.796 148.553L374.67 144.378C374.67 144.378 373.367 137.593 374.409 136.027C375.451 134.462 364.508 137.071 364.508 137.071Z" fill="#A0616A"/>
<path opacity="0.1" d="M364.508 137.071C364.508 137.071 364.769 144.9 363.987 145.683C363.206 146.465 367.114 151.684 367.114 151.684L374.148 151.424L377.796 148.553L374.67 144.378C374.67 144.378 373.367 137.593 374.409 136.027C375.451 134.462 364.508 137.071 364.508 137.071Z" fill="black"/>
<path d="M348.225 197.482L352.654 207.398L356.041 203.223L349.267 194.35L348.225 197.482Z" fill="#A0616A"/>
<path d="M336.37 296.774L334.547 306.952L331.42 311.388L333.244 312.431L336.37 311.909L340.018 310.605L341.581 304.603L344.447 296.774H336.37Z" fill="#A0616A"/>
<path d="M369.719 290.511L368.677 305.125L371.282 307.213L375.451 303.559V292.86L369.719 290.511Z" fill="#A0616A"/>
<path d="M368.808 140.072C373.988 140.072 378.187 135.866 378.187 130.678C378.187 125.489 373.988 121.283 368.808 121.283C363.628 121.283 359.428 125.489 359.428 130.678C359.428 135.866 363.628 140.072 368.808 140.072Z" fill="#A0616A"/>
<path d="M376.045 143.313C375.764 143.178 375.457 143.104 375.146 143.098C374.834 143.092 374.524 143.154 374.238 143.278C373.669 143.531 373.117 143.819 372.584 144.142C371.215 144.855 369.663 145.138 368.132 144.953C367.952 144.939 367.775 144.894 367.611 144.819C367.437 144.71 367.277 144.581 367.134 144.433C366.579 143.981 365.87 143.763 365.157 143.824C364.444 143.886 363.782 144.223 363.312 144.763C363.037 145.107 362.848 145.517 362.548 145.839C361.769 146.673 360.484 146.707 359.344 146.705C356.981 146.639 354.618 146.856 352.306 147.351C349.984 147.853 347.845 148.988 346.126 150.631C345.657 151.073 345.283 151.606 345.028 152.199C344.714 153.011 344.755 153.923 344.473 154.746C344.158 155.664 343.461 156.416 343.179 157.344C342.967 158.043 342.996 158.821 342.641 159.458C344.163 160.778 345.453 162.539 346.976 163.859C347.984 164.732 349.039 165.678 349.418 166.958C349.589 167.748 349.664 168.555 349.644 169.362C349.832 173.222 351.922 176.724 354.26 179.798C354.9 180.71 355.667 181.527 356.537 182.222C357.719 183.028 359.06 183.568 360.47 183.804C363.131 184.349 365.871 184.346 368.588 184.319C371.395 184.291 374.252 184.232 376.921 183.358C378.279 182.978 379.501 182.218 380.443 181.167C381.541 179.817 381.97 177.863 383.467 176.979C383.83 176.812 384.173 176.607 384.491 176.366C384.796 176.035 385.012 175.631 385.119 175.193C385.643 173.554 385.931 171.849 385.976 170.128C385.938 169.096 386.008 168.063 386.185 167.045C386.444 166.148 386.821 165.29 387.307 164.493L390.411 158.855C390.663 158.397 390.597 157.723 390.62 157.2C390.597 156.447 390.366 155.714 389.953 155.084C387.94 151.52 384.778 148.748 380.985 147.221C380.686 147.119 380.401 146.98 380.138 146.806C379.827 146.544 379.565 146.231 379.362 145.879C378.539 144.636 377.533 143.236 376.045 143.313Z" fill="#D0CDE1"/>
<path d="M337.365 174.016C336.753 175.506 336.304 177.059 336.025 178.646C335.725 180.838 336.078 183.071 337.04 185.063C338.712 188.512 342.005 190.85 344.329 193.896C346.488 196.726 347.774 200.118 349.644 203.148C349.318 202.377 349.714 201.484 350.247 200.839C350.781 200.194 351.463 199.659 351.854 198.919C352.121 198.346 352.288 197.732 352.349 197.103C352.629 195.224 352.779 193.183 351.823 191.542C351.103 190.308 349.86 189.488 348.875 188.452C347.891 187.399 347.167 186.129 346.763 184.744C346.358 183.359 346.284 181.898 346.547 180.479C346.737 179.503 347.085 178.565 347.346 177.605C347.669 176.315 347.914 175.006 348.078 173.687L349.252 165.615C349.564 163.469 349.828 161.093 348.614 159.296C348.377 158.92 348.05 158.61 347.662 158.394C347.34 158.247 346.999 158.15 346.648 158.108C345.371 157.899 343.642 157.339 343.018 158.709C342.266 160.363 341.742 162.166 341.112 163.872L337.365 174.016Z" fill="#D0CDE1"/>
<path d="M382.081 178.432C382.081 178.432 366.593 181.433 362.945 181.433H356.432C356.432 181.433 354.087 185.608 354.087 189.784C354.087 193.959 338.715 252.412 338.715 252.412C338.715 252.412 324.125 300.428 340.278 300.689C356.432 300.95 366.593 301.733 366.853 296.253C367.114 290.773 368.677 220.054 368.677 220.054L371.109 256.417C371.763 265.419 371.065 274.469 369.038 283.264C367.872 288.194 368.053 293.6 373.888 294.687C385.091 296.774 399.16 294.948 399.16 291.033C399.16 287.119 391.865 200.222 391.865 200.222C391.865 200.222 388.218 187.435 386.133 186.391C384.049 185.347 382.081 178.432 382.081 178.432Z" fill="#2F2E41"/>
<path d="M333.504 310.866L339.236 308.778L343.144 298.862L347.313 298.34C347.313 298.34 344.968 303.298 343.665 304.081C342.363 304.864 340.278 311.388 340.278 311.388C340.278 311.388 341.321 313.997 336.37 315.041C331.42 316.085 327.772 316.868 327.772 316.868C327.772 316.868 327.251 315.824 329.596 313.215C331.941 310.605 334.679 306.212 334.679 306.212L333.504 310.866Z" fill="#2F2E41"/>
<path d="M368.677 298.862L367.635 306.691C367.635 306.691 370.501 310.866 371.283 310.866C372.064 310.866 376.233 307.213 376.233 307.213C376.233 307.213 375.972 303.298 376.233 302.254C376.493 301.211 377.014 296.253 376.233 295.992C375.451 295.731 375.451 301.808 375.451 301.808L372.064 305.386L368.798 303.425L368.677 298.862Z" fill="#2F2E41"/>
<path d="M369.589 130.678C375.201 130.678 379.75 128.224 379.75 125.198C379.75 122.171 375.201 119.718 369.589 119.718C363.977 119.718 359.428 122.171 359.428 125.198C359.428 128.224 363.977 130.678 369.589 130.678Z" fill="#2F2E41"/>
<path d="M0 232.739C0 263.48 19.2548 288.355 43.0501 288.355L0 232.739Z" fill="#3F3D56"/>
<path d="M43.0502 288.355C43.0502 257.269 64.5374 232.114 91.0915 232.114L43.0502 288.355Z" fill="#027765"/>
<path d="M15.5978 235.525C15.5978 264.726 27.8762 288.355 43.05 288.355L15.5978 235.525Z" fill="#027765"/>
<path d="M43.0502 288.355C43.0502 248.634 67.8861 216.491 98.5785 216.491L43.0502 288.355Z" fill="#3F3D56"/>
<path d="M33.9934 288.747C33.9934 288.747 40.0986 288.559 41.9386 287.247C43.7785 285.935 51.3299 284.368 51.7864 286.472C52.2428 288.577 60.9614 296.94 54.0686 296.995C47.1759 297.051 38.0529 295.92 36.2165 294.8C34.3801 293.679 33.9934 288.747 33.9934 288.747Z" fill="#A8A8A8"/>
<path opacity="0.2" d="M54.1916 296.263C47.2989 296.318 38.1759 295.187 36.3395 294.067C34.941 293.214 34.3837 290.152 34.1972 288.74C34.0681 288.745 33.9934 288.747 33.9934 288.747C33.9934 288.747 34.3801 293.679 36.2165 294.8C38.0529 295.92 47.1759 297.051 54.0686 296.995C56.0583 296.979 56.7455 296.27 56.7078 295.22C56.4314 295.855 55.6726 296.251 54.1916 296.263Z" fill="black"/>
</g>
<defs>
<clipPath id="clip0_246_1564">
<rect width="497" height="364" fill="white"/>
</clipPath>
</defs>
</svg>
